<svg xmlns="http://www.w3.org/2000/svg" width="100%" height="100%" viewBox="0 0 324 40" data-fc-idx="0"><path d="M277.486 31.6572H261.086C258.686 31.6572 256.8 29.7715 256.8 27.4286C256.8 26.6857 256.972 25.8857 257.372 25.2L265.6 10.8572C266.457 9.4286 267.829 8.68574 269.314 8.68574C270.743 8.68574 272.172 9.4286 273.029 10.8572L281.2 25.2C281.657 25.8857 281.829 26.6857 281.829 27.4286C281.829 29.7715 279.943 31.6572 277.486 31.6572ZM285.372 9.02859H301.829C303.6 9.02859 305.086 10.0572 305.714 11.5429C306.286 12.6857 306.286 14.1715 305.543 15.4286L297.314 29.7715C296.514 31.2 295.086 32 293.6 32C292.172 32 290.743 31.2 289.886 29.7715L281.714 15.4286C280.972 14.1715 280.972 12.6857 281.543 11.5429C282.114 10.0572 283.6 9.02859 285.372 9.02859ZM269.086 3.02859C265.543 3.02859 262.114 4.97145 260.343 8.05717L252.114 22.3429C251.029 24.3429 250.457 26.4 250.457 28.2857C250.457 33.5429 254.629 37.6 260.857 37.6H294C297.543 37.6 300.972 35.6 302.743 32.5143L310.972 18.2286C312.057 16.2286 312.629 14.1714 312.629 12.2857C312.629 7.08574 308.457 3.02859 302.172 3.02859H269.086Z" fill="white" style="fill: rgb(255, 255, 255) !important;"/><path d="M41.8857 27.2571C40.0571 27.2571 39.7143 26.6857 39.7143 24.6286V1.77143C39.7143 1.37143 39.4286 1.08572 39.0286 1.08572H34.5714C34.1714 1.08572 33.8857 1.37143 33.8857 1.77143V24.6286C33.8857 30.1143 34.9714 31.5429 38.9714 31.5429C39.7714 31.5429 41.0286 31.4857 41.9429 31.3714C42.2857 31.3143 42.5714 31.0286 42.5714 30.5714V27.9429C42.5714 27.5429 42.2857 27.2571 41.8857 27.2571ZM14.8 26.5143C7.02857 26.5143 6.17143 25.4286 6.17143 15.8857C6.17143 6.34286 7.02857 5.25714 14.8 5.25714C22.5714 5.25714 23.4857 6.34286 23.4857 15.8857C23.4857 25.4286 22.5714 26.5143 14.8 26.5143ZM14.8 0C5.02857 0 0 5.42857 0 15.8857C0 26.4 5.02857 31.7714 14.8 31.7714C24.5714 31.7714 29.6 26.4 29.6 15.8857C29.6 5.42857 24.5714 0 14.8 0ZM164.743 8.45714C161.371 8.45714 159.771 9.42857 158.857 12.1714C158.8 12.3429 158.743 12.4 158.571 12.4C158.4 12.4 158.286 12.3429 158.286 12.1714L158.057 9.65714C158 9.25714 157.714 9.02857 157.257 9.02857H153.657C153.257 9.02857 152.971 9.31429 152.971 9.71428V30.5143C152.971 30.9143 153.257 31.2 153.657 31.2H158.114C158.514 31.2 158.8 30.9143 158.8 30.5143V21.6C158.8 14.2857 159.371 13.4857 164.743 13.4857H165.371C165.771 13.4857 166.057 13.2 166.057 12.8V9.14286C166.057 8.74286 165.771 8.45715 165.371 8.45715L164.743 8.45714ZM181.714 23.4857C181.714 26 180.114 27.2 176.686 27.2C173.943 27.2 173.2 26.5714 173.2 24.5143C173.2 22.0571 174.057 21.6571 180.343 21.6571H181.714V23.4857ZM178.057 8.45714C171.829 8.45714 168.857 11.2 168.286 15.1429C168.229 15.5429 168.514 15.8286 168.914 15.8286H172.743C173.143 15.8286 173.371 15.5429 173.543 15.2C174.286 13.6 175.2 13.0857 177.829 13.0857C181.314 13.0857 181.714 13.4286 181.714 16.8V17.6571H180.343C171.371 17.6571 167.543 19.8857 167.543 25.1429C167.543 29.4857 170.743 31.7714 174.8 31.7714C178.457 31.7714 180.4 30.8 181.371 28.5143C181.371 28.3429 181.543 28.2857 181.657 28.2857C181.771 28.2857 181.886 28.4 181.886 28.5143L182.171 30.5714C182.171 30.9143 182.514 31.2 182.914 31.2H186.743C187.143 31.2 187.429 30.9143 187.429 30.5143V16.8C187.429 11.2571 184.286 8.45714 178.057 8.45714ZM207.886 20.2857C207.886 26.2857 207.314 27.0857 202.743 27.0857C198.286 27.0857 197.6 26.1714 197.6 20.2286C197.6 14.0571 198.286 13.1429 202.857 13.1429C207.2 13.1429 207.886 14 207.886 19.5429V20.2857ZM208.571 1.08571C208.171 1.08571 207.886 1.37143 207.886 1.77143V10.8C207.886 10.9714 207.829 11.0286 207.657 11.0286C207.543 11.0286 207.371 10.9714 207.314 10.8571C206.286 9.25714 204.229 8.45714 201.086 8.45714C194.743 8.45714 191.314 12.6286 191.314 20.1714C191.314 27.7143 194.571 31.7714 200.743 31.7714C204.514 31.7714 206.629 30.7429 207.543 28.5143C207.6 28.3429 207.714 28.2857 207.829 28.2857C207.943 28.2857 208.057 28.4 208.057 28.5143L208.343 30.5714C208.343 30.9143 208.686 31.2 209.086 31.2H213.029C213.429 31.2 213.714 30.9143 213.714 30.5143V1.77143C213.714 1.37143 213.429 1.08572 213.029 1.08572L208.571 1.08571ZM96.8 8.45714C92.9714 8.45714 90.5143 9.6 89.7714 11.7143C89.7143 11.8857 89.6 11.9429 89.4857 11.9429C89.3714 11.9429 89.2 11.8857 89.1429 11.7143C88.2857 9.77143 86.2857 8.45714 83.0857 8.45714C78.9714 8.45714 76.6286 9.48572 75.8857 11.7143C75.8286 11.8286 75.7143 11.9429 75.6 11.9429C75.4286 11.9429 75.3143 11.8857 75.3143 11.7143L75.0857 9.65715C75.0286 9.31429 74.6857 9.02857 74.2857 9.02857H70.6857C70.2857 9.02857 70 9.31429 70 9.71429V30.5143C70 30.9143 70.2857 31.2 70.6857 31.2H75.1429C75.5429 31.2 75.8286 30.9143 75.8286 30.5143V19.2571C75.8286 13.8857 76.3428 13.2571 80.4 13.2571C84.1143 13.2571 84.4571 13.6571 84.4571 18.8V30.5143C84.4571 30.9143 84.7429 31.2 85.1429 31.2H89.5429C89.9429 31.2 90.2286 30.9143 90.2286 30.5143V19.3143C90.2286 13.8857 90.6857 13.2571 94.8 13.2571C98.5714 13.2571 98.9143 13.6571 98.9143 18.8V30.5143C98.9143 30.9143 99.2 31.2 99.6 31.2H104C104.4 31.2 104.686 30.9143 104.686 30.5143V17.9429C104.686 16.4572 104.629 15.3714 104.457 14.2286C104 10.9143 101.543 8.45714 96.8 8.45714ZM144.4 9.08572C144 9.08572 143.714 8.8 143.714 8.4V4.11429C143.714 3.71429 143.429 3.48572 143.086 3.54286L138.514 4.28572C138.171 4.34286 137.886 4.68571 137.886 5.08572V7.65715C137.886 8.74286 137.543 9.08572 136.457 9.08572H135.371C134.971 9.08572 134.686 9.37143 134.686 9.77143V12.9714C134.686 13.3714 134.971 13.6571 135.371 13.6571H137.2C137.6 13.6571 137.886 13.9429 137.886 14.3429V23.8857C137.886 30.0571 139.143 31.7143 143.943 31.7143C145.657 31.7143 146.743 31.6571 147.943 31.4857C148.286 31.4857 148.571 31.1429 148.571 30.7429V27.7143C148.571 27.3143 148.286 27.0857 147.886 27.0857C144.114 27.0857 143.714 26.7429 143.714 23.7143V14.3429C143.714 13.9429 144 13.6571 144.4 13.6571H148.114C148.514 13.6571 148.8 13.3714 148.8 12.9714V9.77143C148.8 9.37143 148.514 9.08572 148.114 9.08572H144.4ZM232.343 17.7714H223.429C223.6 13.7143 224.571 13.0857 228.343 13.0857C231.771 13.0857 232.571 13.5429 232.971 17.1429C233.029 17.4857 232.743 17.7714 232.343 17.7714ZM228.571 8.45714C221.029 8.45714 217.543 13.0286 217.543 20.2286C217.543 27.8857 221.257 31.7714 228.343 31.7714C233.714 31.7714 237.143 29.5429 238.114 25.7143C238.171 25.3714 237.943 25.0857 237.543 25.0857H233.714C233.257 25.0857 232.971 25.3143 232.629 25.7143C231.943 26.6286 230.343 27.1429 228.514 27.1429C224.457 27.1429 223.543 26.5714 223.371 21.8857H238.114C238.514 21.8857 238.8 21.6 238.857 21.2C238.914 20.6857 238.914 20.1714 238.914 19.7143C238.914 13.2 235.829 8.45714 228.571 8.45714ZM61.2571 9.02857C60.8571 9.02857 60.5143 9.25714 60.3429 9.65714L56.0571 23.7143C55.8857 24.3429 55.5429 25.6571 55.4286 26.5143C55.4286 26.6286 55.3143 26.7429 55.1429 26.7429C54.9714 26.7429 54.8571 26.6286 54.8571 26.5143C54.7429 25.6571 54.5143 24.3429 54.3429 23.7143L50.6286 9.65714C50.5143 9.25714 50.1714 9.02857 49.7714 9.02857H44.4C44 9.02857 43.8286 9.25714 43.9429 9.65714L50.8 29.7714C51.2571 31.0286 51.4857 31.9429 51.4857 32.6857C51.4857 34.6286 50.5714 35.3143 48.0571 35.3143H47.2571C46.8571 35.3143 46.5714 35.6 46.5714 36V39.0857C46.5714 39.5429 46.8571 39.8857 47.2 39.9429C47.4286 40 47.6571 40 47.9429 40C54.1714 40 56.0571 38.4 58.6857 31.2L66.4572 9.65714C66.5714 9.25714 66.4 9.02857 66 9.02857H61.2571ZM120.514 27.0857C116.171 27.0857 115.486 26.2286 115.486 20.6857V19.9429C115.486 13.9429 116.057 13.1429 120.629 13.1429C125.086 13.1429 125.771 14.0571 125.771 20C125.771 26.1714 125.143 27.0857 120.514 27.0857ZM122.629 8.45714C118.857 8.45714 116.743 9.48572 115.829 11.7143C115.771 11.8857 115.657 11.9429 115.543 11.9429C115.429 11.9429 115.314 11.8286 115.314 11.7143L115.029 9.65715C114.971 9.31429 114.686 9.02857 114.286 9.02857H110.343C109.943 9.02857 109.657 9.31429 109.657 9.71429V38.4571C109.657 38.8571 109.943 39.1429 110.343 39.1429H114.8C115.2 39.1429 115.486 38.8571 115.486 38.4571V29.4286C115.486 29.3143 115.6 29.2 115.714 29.2C115.886 29.2 116 29.2571 116.057 29.3714C117.086 30.9714 119.143 31.7714 122.286 31.7714C128.629 31.7714 132.057 27.6 132.057 20.0571C132.057 12.5143 128.8 8.45714 122.629 8.45714Z" fill="white" style="fill: rgb(255, 255, 255) !important;"/></svg>